<svg width="24" height="24" viewBox="0 0 24 24" fill="none" xmlns="http://www.w3.org/2000/svg">
<path d="M20 19.88V22L18.2 20.83L13.41 11.83C14.0665 11.6243 14.6727 11.2836 15.19 10.83M15 7C15 7.79565 14.6839 8.55871 14.1213 9.12132C13.5587 9.68393 12.7956 10 12 10C11.8535 10.0099 11.7065 10.0099 11.56 10L5.79998 20.83L3.99998 22V19.88L9.78998 9C9.40533 8.57 9.15284 8.03821 9.06275 7.46836C8.97265 6.8985 9.04879 6.31476 9.28202 5.78708C9.51526 5.25939 9.89571 4.81015 10.3778 4.49319C10.8598 4.17623 11.4231 4.00499 12 4V2C12.2652 2 12.5195 2.10536 12.7071 2.29289C12.8946 2.48043 13 2.73478 13 3V4.18C13.5835 4.38631 14.089 4.76807 14.447 5.27293C14.8051 5.7778 14.9982 6.38106 15 7ZM13 7C13 6.80222 12.9413 6.60888 12.8314 6.44443C12.7216 6.27998 12.5654 6.15181 12.3827 6.07612C12.1999 6.00043 11.9989 5.98063 11.8049 6.01921C11.6109 6.0578 11.4327 6.15304 11.2929 6.29289C11.153 6.43275 11.0578 6.61093 11.0192 6.80491C10.9806 6.99889 11.0004 7.19996 11.0761 7.38268C11.1518 7.56541 11.28 7.72159 11.4444 7.83147C11.6089 7.94135 11.8022 8 12 8C12.2652 8 12.5195 7.89464 12.7071 7.70711C12.8946 7.51957 13 7.26522 13 7ZM4.21998 10L5.99998 11.8L4.55998 14.56L2.09998 12.1M12 17.76L10.5 16.25L8.99998 19L12 22L15 19L13.53 16.23M19.78 10L18 11.8L19.5 14.56L21.9 12.1L19.78 10Z" fill="black"/>
</svg>
